<?xml version="1.0" encoding="UTF-8" standalone="no"?>
<!DOCTYPE svg PUBLIC "-//W3C//DTD SVG 1.1//EN"
 "http://www.w3.org/Graphics/SVG/1.1/DTD/svg11.dtd">
<!-- Generated by graphviz version 2.38.0 (20140413.2041)
 -->
<!-- Title: Tree Pages: 1 -->
<svg width="520pt" height="373pt"
 viewBox="0.00 0.00 520.00 373.00" xmlns="http://www.w3.org/2000/svg" xmlns:xlink="http://www.w3.org/1999/xlink">
<g id="graph0" class="graph" transform="scale(1 1) rotate(0) translate(4 369)">
<title>Tree</title>
<polygon fill="white" stroke="none" points="-4,4 -4,-369 516,-369 516,4 -4,4"/>
<!-- 0 -->
<g id="node1" class="node"><title>0</title>
<polygon fill="none" stroke="black" points="248.5,-365 123.5,-365 123.5,-297 248.5,-297 248.5,-365"/>
<text text-anchor="middle" x="186" y="-349.8" font-family="Times New Roman,serif" font-size="14.00">petal width &lt;= 0.75</text>
<text text-anchor="middle" x="186" y="-334.8" font-family="Times New Roman,serif" font-size="14.00">entropy = 1.5799</text>
<text text-anchor="middle" x="186" y="-319.8" font-family="Times New Roman,serif" font-size="14.00">samples = 105</text>
<text text-anchor="middle" x="186" y="-304.8" font-family="Times New Roman,serif" font-size="14.00">value = [34, 32, 39]</text>
</g>
<!-- 1 -->
<g id="node2" class="node"><title>1</title>
<polygon fill="none" stroke="black" points="173,-253.5 61,-253.5 61,-200.5 173,-200.5 173,-253.5"/>
<text text-anchor="middle" x="117" y="-238.3" font-family="Times New Roman,serif" font-size="14.00">entropy = 0.0</text>
<text text-anchor="middle" x="117" y="-223.3" font-family="Times New Roman,serif" font-size="14.00">samples = 34</text>
<text text-anchor="middle" x="117" y="-208.3" font-family="Times New Roman,serif" font-size="14.00">value = [34, 0, 0]</text>
</g>
<!-- 0&#45;&gt;1 -->
<g id="edge1" class="edge"><title>0&#45;&gt;1</title>
<path fill="none" stroke="black" d="M163.598,-296.884C156.009,-285.666 147.527,-273.126 139.9,-261.852"/>
<polygon fill="black" stroke="black" points="142.766,-259.842 134.263,-253.52 136.968,-263.764 142.766,-259.842"/>
<text text-anchor="middle" x="129.526" y="-274.367" font-family="Times New Roman,serif" font-size="14.00">True</text>
</g>
<!-- 2 -->
<g id="node3" class="node"><title>2</title>
<polygon fill="none" stroke="black" points="319,-261 191,-261 191,-193 319,-193 319,-261"/>
<text text-anchor="middle" x="255" y="-245.8" font-family="Times New Roman,serif" font-size="14.00">petal length &lt;= 4.95</text>
<text text-anchor="middle" x="255" y="-230.8" font-family="Times New Roman,serif" font-size="14.00">entropy = 0.993</text>
<text text-anchor="middle" x="255" y="-215.8" font-family="Times New Roman,serif" font-size="14.00">samples = 71</text>
<text text-anchor="middle" x="255" y="-200.8" font-family="Times New Roman,serif" font-size="14.00">value = [0, 32, 39]</text>
</g>
<!-- 0&#45;&gt;2 -->
<g id="edge2" class="edge"><title>0&#45;&gt;2</title>
<path fill="none" stroke="black" d="M208.402,-296.884C214.247,-288.243 220.622,-278.819 226.728,-269.793"/>
<polygon fill="black" stroke="black" points="229.77,-271.543 232.474,-261.299 223.972,-267.621 229.77,-271.543"/>
<text text-anchor="middle" x="237.211" y="-282.146" font-family="Times New Roman,serif" font-size="14.00">False</text>
</g>
<!-- 3 -->
<g id="node4" class="node"><title>3</title>
<polygon fill="none" stroke="black" points="245.5,-157 120.5,-157 120.5,-89 245.5,-89 245.5,-157"/>
<text text-anchor="middle" x="183" y="-141.8" font-family="Times New Roman,serif" font-size="14.00">petal width &lt;= 1.65</text>
<text text-anchor="middle" x="183" y="-126.8" font-family="Times New Roman,serif" font-size="14.00">entropy = 0.4306</text>
<text text-anchor="middle" x="183" y="-111.8" font-family="Times New Roman,serif" font-size="14.00">samples = 34</text>
<text text-anchor="middle" x="183" y="-96.8" font-family="Times New Roman,serif" font-size="14.00">value = [0, 31, 3]</text>
</g>
<!-- 2&#45;&gt;3 -->
<g id="edge3" class="edge"><title>2&#45;&gt;3</title>
<path fill="none" stroke="black" d="M231.624,-192.884C225.462,-184.154 218.735,-174.625 212.304,-165.514"/>
<polygon fill="black" stroke="black" points="215.132,-163.451 206.505,-157.299 209.413,-167.487 215.132,-163.451"/>
</g>
<!-- 6 -->
<g id="node7" class="node"><title>6</title>
<polygon fill="none" stroke="black" points="392,-157 264,-157 264,-89 392,-89 392,-157"/>
<text text-anchor="middle" x="328" y="-141.8" font-family="Times New Roman,serif" font-size="14.00">petal length &lt;= 5.05</text>
<text text-anchor="middle" x="328" y="-126.8" font-family="Times New Roman,serif" font-size="14.00">entropy = 0.1793</text>
<text text-anchor="middle" x="328" y="-111.8" font-family="Times New Roman,serif" font-size="14.00">samples = 37</text>
<text text-anchor="middle" x="328" y="-96.8" font-family="Times New Roman,serif" font-size="14.00">value = [0, 1, 36]</text>
</g>
<!-- 2&#45;&gt;6 -->
<g id="edge6" class="edge"><title>2&#45;&gt;6</title>
<path fill="none" stroke="black" d="M278.701,-192.884C284.948,-184.154 291.769,-174.625 298.289,-165.514"/>
<polygon fill="black" stroke="black" points="301.194,-167.468 304.168,-157.299 295.502,-163.394 301.194,-167.468"/>
</g>
<!-- 4 -->
<g id="node5" class="node"><title>4</title>
<polygon fill="none" stroke="black" points="112,-53 7.10543e-015,-53 7.10543e-015,-0 112,-0 112,-53"/>
<text text-anchor="middle" x="56" y="-37.8" font-family="Times New Roman,serif" font-size="14.00">entropy = 0.0</text>
<text text-anchor="middle" x="56" y="-22.8" font-family="Times New Roman,serif" font-size="14.00">samples = 30</text>
<text text-anchor="middle" x="56" y="-7.8" font-family="Times New Roman,serif" font-size="14.00">value = [0, 30, 0]</text>
</g>
<!-- 3&#45;&gt;4 -->
<g id="edge4" class="edge"><title>3&#45;&gt;4</title>
<path fill="none" stroke="black" d="M138.582,-88.9485C125.673,-79.3431 111.604,-68.8747 98.797,-59.345"/>
<polygon fill="black" stroke="black" points="100.7,-56.3984 90.588,-53.2367 96.5213,-62.0143 100.7,-56.3984"/>
</g>
<!-- 5 -->
<g id="node6" class="node"><title>5</title>
<polygon fill="none" stroke="black" points="243.5,-53 130.5,-53 130.5,-0 243.5,-0 243.5,-53"/>
<text text-anchor="middle" x="187" y="-37.8" font-family="Times New Roman,serif" font-size="14.00">entropy = 0.8113</text>
<text text-anchor="middle" x="187" y="-22.8" font-family="Times New Roman,serif" font-size="14.00">samples = 4</text>
<text text-anchor="middle" x="187" y="-7.8" font-family="Times New Roman,serif" font-size="14.00">value = [0, 1, 3]</text>
</g>
<!-- 3&#45;&gt;5 -->
<g id="edge5" class="edge"><title>3&#45;&gt;5</title>
<path fill="none" stroke="black" d="M184.399,-88.9485C184.748,-80.7153 185.123,-71.848 185.477,-63.4814"/>
<polygon fill="black" stroke="black" points="188.984,-63.3758 185.911,-53.2367 181.991,-63.0797 188.984,-63.3758"/>
</g>
<!-- 7 -->
<g id="node8" class="node"><title>7</title>
<polygon fill="none" stroke="black" points="381.5,-53 268.5,-53 268.5,-0 381.5,-0 381.5,-53"/>
<text text-anchor="middle" x="325" y="-37.8" font-family="Times New Roman,serif" font-size="14.00">entropy = 0.8113</text>
<text text-anchor="middle" x="325" y="-22.8" font-family="Times New Roman,serif" font-size="14.00">samples = 4</text>
<text text-anchor="middle" x="325" y="-7.8" font-family="Times New Roman,serif" font-size="14.00">value = [0, 1, 3]</text>
</g>
<!-- 6&#45;&gt;7 -->
<g id="edge7" class="edge"><title>6&#45;&gt;7</title>
<path fill="none" stroke="black" d="M326.951,-88.9485C326.689,-80.7153 326.408,-71.848 326.142,-63.4814"/>
<polygon fill="black" stroke="black" points="329.633,-63.1206 325.817,-53.2367 322.636,-63.3428 329.633,-63.1206"/>
</g>
<!-- 8 -->
<g id="node9" class="node"><title>8</title>
<polygon fill="none" stroke="black" points="512,-53 400,-53 400,-0 512,-0 512,-53"/>
<text text-anchor="middle" x="456" y="-37.8" font-family="Times New Roman,serif" font-size="14.00">entropy = 0.0</text>
<text text-anchor="middle" x="456" y="-22.8" font-family="Times New Roman,serif" font-size="14.00">samples = 33</text>
<text text-anchor="middle" x="456" y="-7.8" font-family="Times New Roman,serif" font-size="14.00">value = [0, 0, 33]</text>
</g>
<!-- 6&#45;&gt;8 -->
<g id="edge8" class="edge"><title>6&#45;&gt;8</title>
<path fill="none" stroke="black" d="M372.768,-88.9485C385.779,-79.3431 399.958,-68.8747 412.866,-59.345"/>
<polygon fill="black" stroke="black" points="415.173,-61.992 421.14,-53.2367 411.016,-56.3605 415.173,-61.992"/>
</g>
</g>
</svg>
